<svg width="154" height="115" viewBox="0 0 154 115" fill="none" xmlns="http://www.w3.org/2000/svg">
    <g clip-path="url(#clip0_22388_23198)">
        <path d="M154 0H0V115.14H154V0Z" fill="#263829"/>
        <path d="M26.4031 36.5922L26.9498 32.3473H30.9769V41.0212H24.6398C25.4098 40.5683 26.0258 39.3939 26.4031 36.5922ZM23.3231 43.2089H23.7774V41.4511H31.8624V43.2089H32.3398V41.0212H31.462V31.9175H26.5725L25.9411 36.5231C25.4252 40.3611 24.609 41.0059 23.3077 41.0059L23.3231 43.2089Z" fill="#F2CE56"/>
        <path d="M41.3337 41.4511V41.0212H35.9437V36.761H41.2336V36.3389H35.9437V32.3473H41.3337V31.9175H35.4894V41.4511H41.3337Z" fill="#F2CE56"/>
        <path d="M52.2062 41.4511V31.9175H44.7679V41.4511H45.2299V32.3473H51.7518V41.4511H52.2062Z" fill="#F2CE56"/>
        <path d="M61.8155 38.4651H56.8259L59.2899 32.4471L61.8155 38.4651ZM63.5788 41.4511L59.5902 31.9175H59.0512L55.0626 41.4511H55.5939L56.6565 38.895H61.9849L63.0475 41.4511H63.5788Z" fill="#F2CE56"/>
        <path d="M69.7233 36.8908H66.882V32.3466H69.7233C70.054 32.2923 70.3926 32.3103 70.7156 32.3994C71.0386 32.4886 71.3383 32.6467 71.5938 32.8629C71.8494 33.0791 72.0547 33.3481 72.1955 33.6513C72.3363 33.9545 72.4092 34.2846 72.4092 34.6187C72.4092 34.9529 72.3363 35.283 72.1955 35.5862C72.0547 35.8894 71.8494 36.1584 71.5938 36.3746C71.3383 36.5908 71.0386 36.7489 70.7156 36.8381C70.3926 36.9272 70.054 36.9452 69.7233 36.8908ZM66.882 41.4504V37.3207H69.7387C70.1168 37.361 70.4992 37.3216 70.861 37.205C71.2229 37.0884 71.556 36.8972 71.8389 36.6438C72.1217 36.3904 72.3479 36.0805 72.5027 35.7343C72.6576 35.388 72.7376 35.0132 72.7376 34.6341C72.7376 34.255 72.6576 33.8801 72.5027 33.5339C72.3479 33.1877 72.1217 32.8778 71.8389 32.6244C71.556 32.371 71.2229 32.1798 70.861 32.0632C70.4992 31.9465 70.1168 31.9071 69.7387 31.9475H66.4277V41.4504H66.882Z" fill="#F2CE56"/>
        <path d="M78.6321 41.4511V32.3473H81.8738V31.9175H74.9515V32.3473H78.1778V41.4511H78.6321Z" fill="#F2CE56"/>
        <path d="M89.7432 38.4651H84.7613L87.2561 32.4471L89.7432 38.4651ZM91.5065 41.4511L87.5256 31.9175H87.0097L82.998 41.4511H83.5293L84.5842 38.895H89.9203L90.9752 41.4511H91.5065Z" fill="#F2CE56"/>
        <path d="M102.872 41.4511V31.9175H102.141L98.6142 40.4532L95.0876 31.9175H94.3561V41.4511H94.8181V32.4625L98.5449 41.4511H98.6835L102.41 32.4625V41.4511H102.872Z" fill="#F2CE56"/>
        <path d="M112.528 41.4511V41.0212H107.138V36.761H112.428V36.3389H107.138V32.3473H112.528V31.9175H106.676V41.4511H112.528Z" fill="#F2CE56"/>
        <path d="M123.401 41.4511V31.9175H122.939V36.3389H116.417V31.9175H115.962V41.4511H116.417V36.761H122.939V41.4511H123.401Z" fill="#F2CE56"/>
        <path d="M130.184 41.4511V32.3473H133.425V31.9175H126.495V32.3473H129.722V41.4511H130.184Z" fill="#F2CE56"/>
        <path d="M30.4996 56.3349L25.9104 51.3608L30.0684 46.8013H29.4524L24.4782 52.305V46.8013H24.0239V56.3349H24.4782V52.8883L25.6255 51.6448L29.8836 56.3349H30.4996Z" fill="#F2CE56"/>
        <path d="M36.7983 51.7745H33.957V47.2303H36.7983C37.129 47.1759 37.4676 47.1939 37.7906 47.2831C38.1136 47.3722 38.4133 47.5304 38.6688 47.7465C38.9244 47.9627 39.1297 48.2317 39.2705 48.535C39.4113 48.8382 39.4842 49.1683 39.4842 49.5024C39.4842 49.8365 39.4113 50.1666 39.2705 50.4698C39.1297 50.773 38.9244 51.0421 38.6688 51.2582C38.4133 51.4744 38.1136 51.6326 37.7906 51.7217C37.4676 51.8109 37.129 51.8289 36.7983 51.7745ZM33.957 56.334V52.1967H36.8137C37.1918 52.237 37.5742 52.1976 37.936 52.081C38.2979 51.9644 38.631 51.7731 38.9139 51.5197C39.1967 51.2664 39.4229 50.9565 39.5777 50.6102C39.7326 50.264 39.8126 49.8892 39.8126 49.5101C39.8126 49.131 39.7326 48.7561 39.5777 48.4099C39.4229 48.0636 39.1967 47.7538 38.9139 47.5004C38.631 47.247 38.2979 47.0558 37.936 46.9391C37.5742 46.8225 37.1918 46.7831 36.8137 46.8235H33.5027V56.334H33.957Z" fill="#F2CE56"/>
        <path d="M47.3858 53.3483H42.3962L44.891 47.3303L47.3858 53.3483ZM49.1414 56.3343L45.1605 46.8237H44.6138L40.6329 56.3343H41.1642L42.2191 53.7782H47.5552L48.6178 56.3343H49.1414Z" fill="#F2CE56"/>
        <path d="M55.8633 56.5037C56.4999 56.5126 57.1305 56.3794 57.7087 56.1137C58.287 55.8481 58.7983 55.4568 59.2051 54.9685L58.8278 54.6691C58.4679 55.1048 58.015 55.455 57.5022 55.694C56.9893 55.933 56.4294 56.0549 55.8633 56.0508C54.7121 55.9837 53.6302 55.4806 52.839 54.6444C52.0478 53.8082 51.6071 52.7022 51.6071 51.5527C51.6071 50.4031 52.0478 49.2971 52.839 48.4609C53.6302 47.6247 54.7121 47.1216 55.8633 47.0545C56.4294 47.0504 56.9893 47.1723 57.5022 47.4113C58.015 47.6503 58.4679 48.0005 58.8278 48.4362L59.1897 48.1215C58.7804 47.6426 58.2699 47.2601 57.6948 47.0013C57.1197 46.7425 56.4942 46.6139 55.8633 46.6247C54.5522 46.6247 53.2948 47.1438 52.3678 48.068C51.4407 48.9922 50.9199 50.2457 50.9199 51.5527C50.9199 52.8596 51.4407 54.1131 52.3678 55.0373C53.2948 55.9615 54.5522 56.4807 55.8633 56.4807V56.5037Z" fill="#F2CE56"/>
        <path d="M62.7321 56.3349L69.177 47.5458V56.3349H69.639V46.8013H69.177L62.7321 55.5059V46.8013H62.2701V56.3349H62.7321Z" fill="#F2CE56"/>
        <path d="M77.1079 55.9042H73.9201V51.644H77.1156C77.4066 51.6236 77.6987 51.664 77.9731 51.7627C78.2476 51.8614 78.4983 52.0161 78.7093 52.217C78.9202 52.4179 79.0867 52.6606 79.1981 52.9293C79.3096 53.1981 79.3634 53.4872 79.3563 53.7779C79.3738 54.0717 79.3268 54.3658 79.2183 54.6396C79.1099 54.9133 78.9427 55.1602 78.7285 55.3627C78.5143 55.5653 78.2582 55.7187 77.9783 55.8122C77.6983 55.9058 77.4013 55.9372 77.1079 55.9042ZM77.054 51.2218H73.9201V47.2303H77.0617C77.5926 47.2303 78.1019 47.4406 78.4773 47.8148C78.8527 48.1891 79.0637 48.6967 79.0637 49.226C79.0637 49.7554 78.8527 50.263 78.4773 50.6373C78.1019 51.0115 77.5926 51.2218 77.0617 51.2218H77.054ZM77.1079 56.334C78.7865 56.334 79.8491 55.3899 79.8491 53.7626C79.8427 53.2202 79.6542 52.6956 79.3136 52.2726C78.973 51.8496 78.5001 51.5526 77.9703 51.4291C78.4606 51.3118 78.896 51.0309 79.2042 50.633C79.5123 50.235 79.6747 49.744 79.6643 49.2414C79.6643 47.7062 78.5863 46.8081 77.054 46.8081H73.4581V56.334H77.1079Z" fill="#F2CE56"/>
        <path d="M87.5565 56.0736C85.0771 56.0736 83.5141 54.1623 83.5141 51.5755C83.5141 48.9886 85.054 47.0773 87.5565 47.0773C90.059 47.0773 91.6298 48.9579 91.6298 51.5755C91.6298 54.193 90.0051 56.0736 87.5565 56.0736ZM87.5565 56.5035C90.3208 56.5035 92.0995 54.3311 92.0995 51.5755C92.0995 48.8198 90.3208 46.6475 87.5565 46.6475C84.7922 46.6475 83.0135 48.8198 83.0135 51.5755C83.0135 54.3311 84.7768 56.5035 87.5565 56.5035Z" fill="#F2CE56"/>
        <path d="M101.771 44.9199L101.478 44.6436C101.226 44.9968 100.893 45.2849 100.507 45.4837C100.12 45.6825 99.6918 45.7862 99.257 45.7862C98.8221 45.7862 98.3936 45.6825 98.0071 45.4837C97.6207 45.2849 97.2875 44.9968 97.0355 44.6436L96.7352 44.9199C97.0317 45.3076 97.4137 45.6221 97.8517 45.8391C98.2896 46.056 98.7718 46.1696 99.2608 46.1711C99.7488 46.1757 100.231 46.0646 100.667 45.8471C101.104 45.6295 101.482 45.3118 101.771 44.9199ZM96.0345 56.3341L102.487 47.5451V56.3341H102.941V46.8235H102.487L96.0345 55.5281V46.8235H95.5725V56.3341H96.0345Z" fill="#F2CE56"/>
        <path d="M23.8162 71.2177L28.0743 66.5276L28.7904 67.3183V71.2177H29.2524V67.3183L29.9685 66.5276L34.2266 71.2177H34.8426L30.2534 66.2436L34.4114 61.6841H33.7954L29.2524 66.7195V61.6841H28.7904V66.7195L24.2474 61.6841H23.6314L27.7894 66.2436L23.2079 71.2177H23.8162Z" fill="#F2CE56"/>
        <path d="M38.3 71.2177L44.7449 62.4287V71.2177H45.2069V61.6841H44.7449L38.3 70.3887V61.6841H37.838V71.2177H38.3Z" fill="#F2CE56"/>
        <path d="M51.59 71.3871C53.669 71.3871 54.8548 70.228 54.8548 68.6851C54.8539 68.0877 54.6305 67.5119 54.2278 67.0694C53.8252 66.6269 53.272 66.3492 52.6757 66.2902C53.2326 66.225 53.7468 65.9601 54.1222 65.5449C54.4977 65.1296 54.7088 64.5924 54.7162 64.0334C54.7162 62.4138 53.1762 61.5464 51.6362 61.5464C51.0443 61.5369 50.4575 61.6571 49.9173 61.8985C49.3771 62.1399 48.8967 62.4966 48.51 62.9435L48.8642 63.2275C49.1988 62.8128 49.6254 62.4811 50.1104 62.2587C50.5954 62.0362 51.1256 61.929 51.6593 61.9456C53.053 61.9456 54.2388 62.7132 54.2388 64.0027C54.2388 65.4458 52.9991 66.0446 51.6593 66.0446H49.6573V66.4744H51.6593C53.1223 66.4744 54.3851 67.1039 54.3851 68.6544C54.3851 70.0745 53.3379 70.9572 51.6362 70.9572C51.0661 70.9886 50.4974 70.8755 49.9831 70.6285C49.4687 70.3815 49.0255 70.0087 48.6948 69.5448L48.2944 69.7905C48.6674 70.3086 49.164 70.7259 49.7394 71.0047C50.3148 71.2834 50.9508 71.4149 51.59 71.3871Z" fill="#F2CE56"/>
        <path d="M65.8038 71.2177V61.6841H65.3418V66.0978H58.8199V61.6841H58.3656V71.2177H58.8199V66.5276H65.3418V71.2177H65.8038Z" fill="#F2CE56"/>
        <path d="M70.0781 71.2177L76.5307 62.4287V71.2177H76.985V61.6841H76.5307L70.0781 70.3887V61.6841H69.6161V71.2177H70.0781Z" fill="#F2CE56"/>
        <path d="M28.844 86.4474V80.8823H27.4041V82.9625H25.0864V80.8823H23.6465V86.4474H25.0864V84.2137H27.4041V86.4474H28.844Z" fill="#F2CE56"/>
        <path d="M37.2836 86.4474V85.1962H34.6271V84.2521H37.222V83.0009H34.6271V82.1335H37.2836V80.8823H33.1949V86.4474H37.2836Z" fill="#F2CE56"/>
        <path d="M43.5896 83.8147L43.7898 82.1337H45.2143V85.2041H42.9813C43.3355 84.8226 43.5499 84.333 43.5896 83.8147ZM41.1487 87.5069H42.5886V86.4859H45.6686V87.5069H47.1162V85.2041H46.6157V80.8901H42.4577L42.1651 83.6689C42.0034 84.9354 41.6877 85.1657 41.1487 85.2501V87.5069Z" fill="#F2CE56"/>
        <path d="M53.9999 85.2041H52.5523V84.2062H53.9999C54.07 84.1986 54.141 84.2059 54.2081 84.2276C54.2751 84.2492 54.3369 84.2848 54.3892 84.3319C54.4416 84.379 54.4833 84.4366 54.5118 84.5009C54.5402 84.5653 54.5547 84.6349 54.5543 84.7051C54.556 84.7758 54.5423 84.846 54.5143 84.9109C54.4863 84.9759 54.4445 85.034 54.3919 85.0813C54.3393 85.1287 54.277 85.1642 54.2094 85.1854C54.1417 85.2066 54.0703 85.2129 53.9999 85.2041ZM53.946 82.9857H52.5523V82.1337H53.946C54.0686 82.1337 54.1861 82.1822 54.2727 82.2686C54.3594 82.355 54.408 82.4721 54.408 82.5942C54.408 82.7164 54.3594 82.8335 54.2727 82.9199C54.1861 83.0063 54.0686 83.0548 53.946 83.0548V82.9857ZM54.3772 86.4169C54.5895 86.4391 54.8042 86.4155 55.0065 86.3476C55.2089 86.2798 55.3941 86.1692 55.5498 86.0235C55.7054 85.8779 55.8277 85.7005 55.9084 85.5034C55.9891 85.3064 56.0262 85.0943 56.0173 84.8817C56.0296 84.5666 55.9296 84.2574 55.7351 84.0088C55.5407 83.7601 55.2642 83.588 54.9547 83.523C55.2381 83.4553 55.4888 83.2908 55.6632 83.058C55.8376 82.8252 55.9248 82.539 55.9095 82.2488C55.9044 82.0458 55.857 81.8461 55.7703 81.6624C55.6837 81.4786 55.5597 81.3148 55.4063 81.1813C55.2528 81.0478 55.0732 80.9475 54.8788 80.8868C54.6845 80.8261 54.4796 80.8064 54.2771 80.8288H51.1124V86.3939L54.3772 86.4169Z" fill="#F2CE56"/>
        <path d="M61.5303 86.4474L63.8788 83.0086V86.4474H65.3264V80.8823H63.8403L61.5765 84.16V80.8823H60.1443V86.4474H61.5303Z" fill="#F2CE56"/>
        <path d="M70.8559 86.4474L72.3266 84.3519L72.5191 84.6052V86.4474H73.959V84.5898L74.1438 84.3519L75.6145 86.4474H77.3778L75.0986 83.4845L77.2546 80.8823H75.4836L73.959 82.9241V80.8823H72.5191V82.9395L70.9791 80.8823H69.2158L71.3795 83.4845L69.1003 86.4474H70.8559Z" fill="#F2CE56"/>
        <path d="M82.521 86.4474L84.8772 83.0086V86.4474H86.3248V80.8823H84.831L82.5749 84.16V80.8823H81.135V86.4474H82.521Z" fill="#F2CE56"/>
        <path d="M96.9967 86.4474V80.8823H95.0024L93.832 83.9067L92.6693 80.8823H90.6673V86.4474H92.1072V82.8244L93.5086 86.4474H94.1477L95.5645 82.8244V86.4474H96.9967Z" fill="#F2CE56"/>
        <path d="M104.05 85.2812C103.727 85.2965 103.407 85.2152 103.132 85.0477C102.856 84.8801 102.637 84.634 102.502 84.3412C102.368 84.0483 102.325 83.7221 102.378 83.4045C102.432 83.0869 102.579 82.7926 102.802 82.5594C103.025 82.3262 103.313 82.1649 103.628 82.0962C103.944 82.0275 104.273 82.0547 104.573 82.1741C104.873 82.2935 105.13 82.4997 105.311 82.7662C105.493 83.0327 105.59 83.3472 105.59 83.6693C105.6 83.8772 105.568 84.0851 105.496 84.2804C105.423 84.4756 105.311 84.654 105.167 84.8048C105.023 84.9556 104.85 85.0756 104.658 85.1575C104.466 85.2394 104.259 85.2815 104.05 85.2812ZM104.05 86.5478C104.616 86.5282 105.165 86.3428 105.626 86.0149C106.088 85.6869 106.442 85.2308 106.645 84.7034C106.849 84.176 106.892 83.6006 106.769 83.049C106.647 82.4974 106.364 81.9938 105.957 81.6012C105.549 81.2086 105.035 80.9441 104.477 80.8409C103.92 80.7377 103.345 80.8002 102.823 81.0207C102.301 81.2412 101.856 81.6099 101.543 82.0809C101.23 82.5519 101.063 83.1043 101.062 83.6693C101.054 84.058 101.127 84.4442 101.276 84.8036C101.424 85.1631 101.646 85.4881 101.926 85.7583C102.207 86.0286 102.54 86.2381 102.905 86.374C103.271 86.5098 103.661 86.569 104.05 86.5478Z" fill="#F2CE56"/>
        <path d="M113.829 86.5475C114.342 86.5597 114.846 86.4204 115.279 86.1472C115.712 85.874 116.054 85.4791 116.263 85.0123L115.023 84.4289C114.923 84.6641 114.757 84.8658 114.546 85.01C114.334 85.1542 114.086 85.2349 113.829 85.2425C113.421 85.2144 113.038 85.0327 112.759 84.7342C112.479 84.4358 112.324 84.0427 112.324 83.6344C112.324 83.2261 112.479 82.8331 112.759 82.5346C113.038 82.2361 113.421 82.0545 113.829 82.0263C114.081 82.029 114.326 82.1025 114.537 82.2383C114.749 82.3741 114.917 82.5667 115.023 82.7939L116.263 82.2105C116.056 81.7425 115.714 81.3464 115.281 81.0729C114.847 80.7995 114.342 80.661 113.829 80.6753C113.064 80.6753 112.329 80.9786 111.788 81.5184C111.246 82.0582 110.942 82.7904 110.942 83.5538C110.942 84.3172 111.246 85.0494 111.788 85.5892C112.329 86.1291 113.064 86.4323 113.829 86.4323V86.5475Z" fill="#F2CE56"/>
        <path d="M122.908 86.4474V82.1335H124.463V80.8823H119.905V82.1335H121.468V86.4474H122.908Z" fill="#F2CE56"/>
        <path d="M131.092 84.0065C131.177 83.9969 131.262 84.0052 131.342 84.0307C131.423 84.0563 131.497 84.0985 131.56 84.1547C131.623 84.2109 131.674 84.2797 131.709 84.3566C131.743 84.4336 131.761 84.517 131.761 84.6013C131.761 84.6857 131.743 84.7691 131.709 84.846C131.674 84.923 131.623 84.9918 131.56 85.048C131.497 85.1042 131.423 85.1464 131.342 85.1719C131.262 85.1975 131.177 85.2058 131.092 85.1962H129.93V84.0065H131.092ZM128.498 80.8823V86.4474H131.285C131.538 86.4637 131.792 86.428 132.031 86.3426C132.27 86.2572 132.489 86.1239 132.674 85.9509C132.859 85.7779 133.006 85.5688 133.107 85.3367C133.208 85.1046 133.26 84.8543 133.26 84.6013C133.26 84.3484 133.208 84.0981 133.107 83.866C133.006 83.6339 132.859 83.4248 132.674 83.2518C132.489 83.0788 132.27 82.9455 132.031 82.86C131.792 82.7746 131.538 82.739 131.285 82.7553H129.93V80.8823H128.498Z" fill="#F2CE56"/>
        <path fill-rule="evenodd" clip-rule="evenodd" d="M78.7093 74.3957L80.6497 76.33L78.7093 78.2951L76.7766 76.3684L78.7093 74.3957ZM76.0913 76.6985L78.7093 79.3007L81.3196 76.6985H132.54V75.9923H81.3196L78.7093 73.3901L76.0913 75.9923H22.9613V76.7599H76.0913V76.6985Z" fill="#F2CE56"/>
    </g>
    <defs>
        <clipPath id="clip0_22388_23198">
            <rect width="154" height="115" fill="white"/>
        </clipPath>
    </defs>
</svg>
