<svg width="20" height="21" viewBox="0 0 20 21" fill="none" xmlns="http://www.w3.org/2000/svg">
<g clip-path="url(#clip0_1264_9027)">
<g clip-path="url(#clip1_1264_9027)">
<path d="M20 10.75C20 5.22715 15.5229 0.75 10 0.75C4.47715 0.75 0 5.22715 0 10.75C0 15.7412 3.65684 19.8783 8.4375 20.6285V13.6406H5.89844V10.75H8.4375V8.54688C8.4375 6.04063 9.93047 4.65625 12.2146 4.65625C13.3084 4.65625 14.4531 4.85156 14.4531 4.85156V7.3125H13.1922C11.95 7.3125 11.5625 8.0834 11.5625 8.875V10.75H14.3359L13.8926 13.6406H11.5625V20.6285C16.3432 19.8783 20 15.7412 20 10.75Z" fill="#263829"/>
</g>
</g>
<defs>
<clipPath id="clip0_1264_9027">
<rect width="20" height="20" fill="white" transform="translate(0 0.75)"/>
</clipPath>
<clipPath id="clip1_1264_9027">
<rect width="20" height="20" fill="white" transform="translate(0 0.75)"/>
</clipPath>
</defs>
</svg>
