<svg width="20" height="21" viewBox="0 0 20 21" fill="none" xmlns="http://www.w3.org/2000/svg">
<g clip-path="url(#clip0_1264_9025)">
<path fill-rule="evenodd" clip-rule="evenodd" d="M14.0361 6.20649C13.0036 5.22174 11.6257 4.68527 10.2 4.70732C7.59114 4.70732 5.37546 6.46736 4.58545 8.83736C4.16656 10.0793 4.16656 11.4242 4.58544 12.6662H4.58911C5.38279 15.0325 7.59481 16.7926 10.2037 16.7926C11.5503 16.7926 12.7065 16.4481 13.6025 15.8397V15.8372C14.6571 15.1391 15.3773 14.0404 15.6014 12.7985H10.2V8.94766H19.6323C19.7499 9.61641 19.805 10.2999 19.805 10.9796C19.805 14.0212 18.718 16.5927 16.8267 18.3343L16.8287 18.3358C15.1715 19.8644 12.897 20.75 10.2 20.75C6.41898 20.75 2.96133 18.6188 1.26374 15.242C-0.154587 12.4163 -0.154583 9.08727 1.26375 6.26163C2.96134 2.88114 6.41898 0.749941 10.2 0.749941C12.6839 0.720546 15.0833 1.65385 16.8911 3.35145L14.0361 6.20649Z" fill="#263829"/>
</g>
<defs>
<clipPath id="clip0_1264_9025">
<rect width="20" height="20" fill="white" transform="translate(0 0.75)"/>
</clipPath>
</defs>
</svg>
