<svg width="20" height="21" viewBox="0 0 20 21" fill="none" xmlns="http://www.w3.org/2000/svg">
<g clip-path="url(#clip0_1264_9024)">
<g clip-path="url(#clip1_1264_9024)">
<path d="M2.04962 2.80223L2.04961 2.80222C1.54824 3.30009 1.24653 3.79482 1.01261 4.38984C0.789122 4.96846 0.627659 5.63807 0.58309 6.64797L2.04962 2.80223ZM2.04962 2.80223L2.05222 2.79961M2.04962 2.80223L2.05222 2.79961M2.05222 2.79961C2.55024 2.29809 3.04495 1.9965 3.64377 1.7626C4.21763 1.53947 4.89085 1.3777 5.90196 1.33309L2.05222 2.79961ZM2.04961 18.6978L2.05092 18.6991C2.55086 19.199 3.04645 19.5039 3.63866 19.733C4.21757 19.9568 4.88742 20.1184 5.89805 20.163L2.04961 18.6978ZM2.04961 18.6978C1.54803 18.1997 1.24643 17.7049 1.01252 17.106M2.04961 18.6978L1.01252 17.106M16.3527 19.7334L16.3535 19.733C16.9457 19.5039 17.4413 19.199 17.9413 18.6991C18.4412 18.1991 18.7461 17.7036 18.9752 17.1113C19.1989 16.5324 19.3606 15.8626 19.4052 14.8519C19.4052 14.8519 19.4052 14.8519 19.4052 14.8519L19.9297 14.875C19.9766 13.8086 19.9883 13.4687 19.9883 10.7539L16.3527 19.7334ZM16.3527 19.7334C15.7787 19.9566 15.1055 20.1184 14.0941 20.163M16.3527 19.7334L14.0941 20.163M10 2.02578C12.6745 2.02578 13.0001 2.03751 14.0621 2.08488L10 2.02578ZM10 2.02578C7.32541 2.02578 6.99987 2.03751 5.93777 2.08489L10 2.02578ZM16.0843 2.46363C16.6166 2.66947 17.0146 2.92834 17.4142 3.32799C17.8181 3.73186 18.0729 4.12597 18.2786 4.65785C18.4354 5.0614 18.6118 5.64897 18.6573 6.67995M16.0843 2.46363L18.1328 6.70312M16.0843 2.46363C15.6811 2.30685 15.0975 2.13047 14.0625 2.0849L16.0843 2.46363ZM18.6573 6.67995L18.1328 6.70312M18.6573 6.67995C18.6573 6.67991 18.6573 6.67986 18.6573 6.67981L18.1328 6.70312M18.6573 6.67995C18.7047 7.74596 18.7164 8.07139 18.7164 10.7422C18.7164 13.4167 18.7047 13.7423 18.6573 14.8043M18.1328 6.70312C18.1797 7.75781 18.1914 8.07422 18.1914 10.7422C18.1914 13.4141 18.1797 13.7305 18.1328 14.7812M18.6573 14.8043L18.1328 14.7812M18.6573 14.8043C18.6573 14.8044 18.6573 14.8045 18.6573 14.8046L18.1328 14.7812M18.6573 14.8043C18.6118 15.8395 18.4354 16.4232 18.2786 16.8265C18.0727 17.3588 17.8138 17.7567 17.4142 18.1564C17.0103 18.5603 16.6162 18.8151 16.0843 19.0207C15.6808 19.1776 15.0932 19.3539 14.0622 19.3995M18.1328 14.7812L14.0391 18.875M14.0622 19.3995L14.0391 18.875M14.0622 19.3995C14.0623 19.3995 14.0623 19.3995 14.0624 19.3995L14.0391 18.875M14.0622 19.3995C12.9962 19.4469 12.6708 19.4586 10 19.4586C7.32549 19.4586 6.99989 19.4469 5.93786 19.3995M14.0391 18.875C12.9844 18.9219 12.668 18.9336 10 18.9336C7.32812 18.9336 7.01172 18.9219 5.96094 18.875M5.93786 19.3995L5.96094 18.875M5.93786 19.3995C5.93775 19.3995 5.93765 19.3995 5.93754 19.3995L5.96094 18.875M5.93786 19.3995C4.90265 19.3539 4.31897 19.1775 3.91568 19.0207C3.38335 18.8149 2.98544 18.556 2.5858 18.1564C2.18194 17.7525 1.92713 17.3584 1.72147 16.8266C1.56458 16.423 1.38826 15.8355 1.34271 14.8046L5.96094 18.875M1.72144 4.65787C1.56466 5.06112 1.38828 5.64472 1.34271 6.67973L1.72144 4.65787ZM1.72144 4.65787C1.92728 4.12554 2.18616 3.72763 2.5858 3.32799C2.98968 2.92411 3.38381 2.66929 3.91571 2.46362C4.31923 2.30674 4.90673 2.13046 5.93754 2.0849L1.72144 4.65787ZM1.01252 17.106C0.78943 16.5322 0.627696 15.859 0.583086 14.848L1.01252 17.106ZM14.0941 20.163C13.0391 20.2094 12.7082 20.2211 9.99609 20.2211C7.28405 20.2211 6.95307 20.2094 5.89814 20.163L14.0941 20.163ZM18.9755 4.39732C19.1987 4.97126 19.3606 5.64455 19.4052 6.65587L5.90205 1.33308C6.95698 1.28671 7.28796 1.275 10 1.275C12.7122 1.275 13.0423 1.28672 14.1001 1.33691L14.1019 1.33699C15.1125 1.38158 15.7824 1.54323 16.3613 1.76697C16.9536 1.9961 17.4491 2.30097 17.9491 2.80092L17.9504 2.80222C18.452 3.30027 18.7515 3.79294 18.9726 4.38947L18.9725 4.38949L18.9755 4.39732ZM1.28359 10.7422C1.28359 13.413 1.29532 13.7384 1.3427 14.8044L1.3427 6.68005C1.29532 7.74208 1.28359 8.06768 1.28359 10.7422ZM0.524999 10.75C0.524999 8.03806 0.536711 7.70697 0.583083 6.64814V14.848C0.536712 13.793 0.524999 13.462 0.524999 10.75Z" fill="#1B3425" stroke="#263829" stroke-width="1.05"/>
<path d="M5.38828 10.75C5.38828 8.20401 7.45401 6.13828 10 6.13828C12.546 6.13828 14.6117 8.20401 14.6117 10.75C14.6117 13.296 12.546 15.3617 10 15.3617C7.45401 15.3617 5.38828 13.296 5.38828 10.75ZM6.14297 10.75C6.14297 12.8798 7.87021 14.607 10 14.607C12.1298 14.607 13.857 12.8798 13.857 10.75C13.857 8.62021 12.1298 6.89297 10 6.89297C7.87021 6.89297 6.14297 8.62021 6.14297 10.75Z" fill="#1B3425" stroke="#263829" stroke-width="1.05"/>
<path d="M16.0141 5.41016C16.0141 5.78316 15.7112 6.08438 15.3398 6.08438C14.9668 6.08438 14.6656 5.78148 14.6656 5.41016C14.6656 5.03716 14.9685 4.73594 15.3398 4.73594C15.7101 4.73594 16.0141 5.03995 16.0141 5.41016Z" fill="#1B3425" stroke="#263829" stroke-width="1.05"/>
</g>
</g>
<defs>
<clipPath id="clip0_1264_9024">
<rect width="20" height="20" fill="white" transform="translate(0 0.75)"/>
</clipPath>
<clipPath id="clip1_1264_9024">
<rect width="20" height="20" fill="white" transform="translate(0 0.75)"/>
</clipPath>
</defs>
</svg>
