<svg width="20" height="21" viewBox="0 0 20 21" fill="none" xmlns="http://www.w3.org/2000/svg">
<g clip-path="url(#clip0_1264_9026)">
<g clip-path="url(#clip1_1264_9026)">
<path fill-rule="evenodd" clip-rule="evenodd" d="M22 12.75C22 18.2728 17.5228 22.75 12 22.75C6.47715 22.75 2 18.2728 2 12.75C2 7.22715 6.47715 2.75 12 2.75C17.5228 2.75 22 7.22715 22 12.75ZM12.3584 10.1324C11.3857 10.537 9.44178 11.3743 6.52658 12.6444C6.05319 12.8327 5.80521 13.0168 5.78264 13.1969C5.74449 13.5012 6.12559 13.6211 6.64456 13.7843C6.71515 13.8065 6.7883 13.8295 6.86328 13.8538C7.37386 14.0198 8.06069 14.214 8.41774 14.2217C8.74162 14.2287 9.10311 14.0952 9.5022 13.8211C12.226 11.9825 13.632 11.0532 13.7203 11.0331C13.7825 11.019 13.8688 11.0012 13.9273 11.0532C13.9858 11.1052 13.98 11.2036 13.9738 11.23C13.9361 11.391 12.4401 12.7818 11.6659 13.5015C11.4246 13.7259 11.2534 13.885 11.2184 13.9214C11.14 14.0028 11.0601 14.0798 10.9833 14.1538C10.509 14.6111 10.1533 14.954 11.003 15.514C11.4114 15.7831 11.7381 16.0056 12.0641 16.2276C12.4201 16.4701 12.7752 16.7119 13.2347 17.0131C13.3517 17.0898 13.4635 17.1695 13.5724 17.2471C13.9867 17.5425 14.359 17.8078 14.8188 17.7655C15.086 17.7409 15.3621 17.4897 15.5022 16.7403C15.8335 14.9693 16.4847 11.132 16.6352 9.55081C16.6484 9.41228 16.6318 9.23498 16.6185 9.15715C16.6051 9.07932 16.5773 8.96842 16.4761 8.88633C16.3563 8.78911 16.1714 8.76861 16.0886 8.77007C15.7125 8.7767 15.1355 8.97735 12.3584 10.1324Z" fill="#263829"/>
</g>
</g>
<defs>
<clipPath id="clip0_1264_9026">
<rect width="20" height="20" fill="white" transform="translate(0 0.75)"/>
</clipPath>
<clipPath id="clip1_1264_9026">
<rect width="20" height="20" fill="white" transform="translate(2 2.75)"/>
</clipPath>
</defs>
</svg>
