<svg width="20" height="21" viewBox="0 0 20 21" fill="none" xmlns="http://www.w3.org/2000/svg">
<g clip-path="url(#clip0_1264_9028)">
<path d="M19.8008 6.75C19.8008 6.75 19.6055 5.37109 19.0039 4.76563C18.2422 3.96875 17.3906 3.96484 17 3.91797C14.2031 3.71484 10.0039 3.71484 10.0039 3.71484H9.99609C9.99609 3.71484 5.79688 3.71484 3 3.91797C2.60938 3.96484 1.75781 3.96875 0.996094 4.76563C0.394531 5.37109 0.203125 6.75 0.203125 6.75C0.203125 6.75 0 8.37109 0 9.98828V11.5039C0 13.1211 0.199219 14.7422 0.199219 14.7422C0.199219 14.7422 0.394531 16.1211 0.992187 16.7266C1.75391 17.5234 2.75391 17.4961 3.19922 17.582C4.80078 17.7344 10 17.7813 10 17.7813C10 17.7813 14.2031 17.7734 17 17.5742C17.3906 17.5273 18.2422 17.5234 19.0039 16.7266C19.6055 16.1211 19.8008 14.7422 19.8008 14.7422C19.8008 14.7422 20 13.125 20 11.5039V9.98828C20 8.37109 19.8008 6.75 19.8008 6.75ZM7.93359 13.3438V7.72266L13.3359 10.543L7.93359 13.3438Z" fill="#1B3425"/>
</g>
<defs>
<clipPath id="clip0_1264_9028">
<rect width="20" height="20" fill="white" transform="translate(0 0.75)"/>
</clipPath>
</defs>
</svg>
